<svg width="28" height="40" fill="none" xmlns="http://www.w3.org/2000/svg"><path d="M9.025 13.32c2.1 0 3.58-.347 4.439-1.04.86-.694 1.343-1.553 1.45-2.579h3.472V31h-4.204V16.264H9.025v-2.945z" fill="#FF5643"/><path d="M9.025 13.32v-9a9 9 0 00-9 9h9zm5.89-3.619v-9a9 9 0 00-8.952 8.062l8.951.938zm3.47 0h9a9 9 0 00-9-9v9zm0 21.299v9a9 9 0 009-9h-9zm-4.203 0h-9a9 9 0 009 9v-9zm0-14.736h9a9 9 0 00-9-9v9zm-5.157 0h-9a9 9 0 009 9v-9zm0 6.055c2.554 0 6.717-.314 10.09-3.035L7.813 5.274c.94-.758 1.734-.952 1.843-.977.134-.032-.03.022-.63.022v18zm10.09-3.035c2.576-2.078 4.374-5.058 4.75-8.645L5.963 8.763a5.383 5.383 0 01.664-2.06 4.965 4.965 0 011.186-1.428l11.302 14.009zm-4.2-.583h3.47v-18h-3.47v18zm-5.53-9V31h18V9.701h-18zm9 12.299h-4.203v18h4.204V22zm4.797 9V16.264h-18V31h18zm-9-23.736H9.025v18h5.157v-18zm3.843 9v-2.945h-18v2.945h18z" fill="#fff"/></svg>