<svg width="34" height="40" fill="none" xmlns="http://www.w3.org/2000/svg"><path d="M9.941 31c0-1.787.41-3.34 1.23-4.658.821-1.319 2.398-2.837 4.732-4.556 1.934-1.416 3.145-2.485 3.633-3.208.488-.723.733-1.47.733-2.241 0-.86-.25-1.592-.747-2.197-.489-.616-1.226-.923-2.212-.923-1.075 0-1.827.337-2.256 1.01-.43.674-.645 1.666-.645 2.974h-4.204v-.615c0-1.855.581-3.467 1.743-4.834 1.172-1.367 2.915-2.05 5.23-2.05 2.031 0 3.755.575 5.17 1.728 1.417 1.142 2.125 2.783 2.125 4.922 0 1.455-.352 2.724-1.055 3.808-.693 1.074-2.07 2.324-4.13 3.75-2.257 1.563-3.6 2.68-4.03 3.355h9.215V31H9.94z" fill="#FF5643"/><path d="M9.941 31h-9a9 9 0 009 9v-9zm5.962-9.214l-5.317-7.261-.02.014 5.337 7.247zm3.618-7.646l-7.05 5.595.1.122 6.95-5.717zM14.41 17.2v9a9 9 0 009-9h-9zm-4.204 0h-9a9 9 0 009 9v-9zm1.743-5.449L5.115 5.895a9.45 9.45 0 00-.024.028l6.857 5.829zm10.4-.322l-5.68 6.98.029.024 5.652-7.004zm1.07 8.73l-7.55-4.898-.012.017 7.562 4.881zm-4.13 3.75l-5.122-7.4-.003.002 5.124 7.398zm-4.03 3.355l-7.588-4.84a9 9 0 007.589 13.84v-9zm9.215 0h9a9 9 0 00-9-9v9zm0 3.735v9a9 9 0 009-9h-9zm-5.532 0c0-.204.024-.259.01-.206a1.337 1.337 0 01-.137.303L3.53 21.587C1.695 24.537.941 27.791.941 31h18zm-.128.096c-.106.172-.053.037.4-.399.43-.413 1.083-.969 2.027-1.664L10.567 14.54c-2.597 1.912-5.295 4.25-7.037 7.048l15.283 9.51zm2.408-2.049c1.79-1.31 4.281-3.223 5.772-5.43L12.08 13.539a5.188 5.188 0 01.425-.547c.016-.017-.04.042-.2.184-.328.29-.878.734-1.718 1.349L21.22 29.047zm5.772-5.43c1.358-2.01 2.276-4.485 2.276-7.28h-18c0-1.253.428-2.233.81-2.798l14.914 10.078zm2.276-7.28c0-2.73-.844-5.54-2.797-7.915L12.571 19.857a5.823 5.823 0 01-1.01-1.817 5.328 5.328 0 01-.292-1.703h18zm-2.7-7.791c-2.623-3.305-6.299-4.328-9.261-4.328v18c-.426 0-1.219-.065-2.173-.463a6.732 6.732 0 01-2.665-2.02l14.1-11.19zm-9.26-4.328c-2.97 0-7.215 1.048-9.845 5.172l15.177 9.678a7.01 7.01 0 01-3.022 2.616c-1.076.482-1.948.534-2.31.534v-18zM7.465 9.389C5.698 12.159 5.41 15.163 5.41 17.2h18c0-.187.018-.099-.043.182-.06.278-.235.917-.724 1.684L7.465 9.389zM14.41 8.2h-4.204v18h4.204v-18zm4.796 9v-.615h-18v.615h18zm0-.615c0 .026-.007.2-.098.453a1.814 1.814 0 01-.301.542L5.09 5.923c-2.596 3.054-3.886 6.751-3.886 10.663h18zm-.423 1.023a3.56 3.56 0 01-1.362.984c-.39.153-.532.108-.242.108V.7c-4.138 0-8.72 1.293-12.063 5.194l13.667 11.714zM17.179 18.7c.158 0 .122.021-.037-.032a1.536 1.536 0 01-.473-.259L28.029 4.45C24.826 1.841 21.031.7 17.178.7v18zm-.481-.267a3.609 3.609 0 01-1.019-1.35c-.218-.506-.205-.812-.205-.732h18c0-4.327-1.557-8.767-5.473-11.927l-11.304 14.01zm-1.224-2.082s0-.032.008-.096a1.95 1.95 0 01.054-.263 2.68 2.68 0 01.332-.73l15.102 9.795c1.765-2.721 2.504-5.74 2.504-8.706h-18zm.383-1.073c.222-.344.306-.354-.04-.04-.315.287-.841.71-1.65 1.27L24.409 31.31c2.28-1.577 4.88-3.65 6.572-6.27l-15.124-9.762zm-1.693 1.233c-1.239.857-2.378 1.696-3.334 2.493-.744.62-2.137 1.82-3.159 3.42l15.177 9.679a6.387 6.387 0 01-.487.669 3.93 3.93 0 01-.209.232c-.043.043.005-.009.196-.168.387-.322 1.047-.824 2.065-1.528l-10.25-14.797zm1.096 19.753h9.214v-18H15.26v18zm.214-9V31h18v-3.735h-18zm9-5.265H9.94v18h14.532V22z" fill="#fff"/></svg>