<svg width="34" height="41" fill="none" xmlns="http://www.w3.org/2000/svg"><path d="M9.941 24.408h4.204c.079 2.442 1.104 3.662 3.077 3.662.947 0 1.713-.293 2.3-.879.585-.585.878-1.42.878-2.505 0-1.054-.376-1.82-1.127-2.3-.743-.488-1.978-.732-3.707-.732v-2.988h.674c2.334 0 3.501-.928 3.501-2.783 0-.83-.244-1.504-.732-2.022-.489-.527-1.167-.79-2.036-.79-1.914 0-2.881 1.142-2.9 3.427h-3.81c0-2.1.601-3.755 1.802-4.966 1.211-1.22 2.92-1.83 5.127-1.83 2.022 0 3.663.517 4.922 1.552 1.26 1.035 1.89 2.46 1.89 4.277 0 1.905-.874 3.301-2.622 4.19 2.187.898 3.281 2.549 3.281 4.95 0 1.983-.674 3.61-2.021 4.879-1.338 1.26-3.135 1.89-5.391 1.89-2.363 0-4.146-.596-5.347-1.788-1.2-1.2-1.855-2.949-1.963-5.244z" fill="#FF5643"/><path d="M9.941 24.408v-9a9 9 0 00-8.99 9.421l8.99-.42zm4.204 0l8.996-.288a9 9 0 00-8.995-8.712v9zm5.128-2.021l-4.947 7.518.115.075 4.832-7.593zm-3.707-.733h-9a9 9 0 009 9v-9zm0-2.988v-9a9 9 0 00-9 9h9zm3.443-4.805l-6.604 6.115.057.061 6.547-6.176zm-4.937 2.637v9a9 9 0 009-8.923l-9-.077zm-3.808 0h-9a9 9 0 009 9v-9zm1.801-4.966L5.676 5.194l6.39 6.338zm9.317 8.189l-4.079-8.023a9 9 0 00.66 16.348l3.419-8.325zm1.26 9.829l6.17 6.552v-.001l-6.17-6.551zm-10.738.102L5.54 36.016l.026.026 6.338-6.39zm-1.963 3.756h4.204v-18H9.942v18zm-4.79-8.712c.07 2.22.59 5.46 2.93 8.247 2.622 3.12 6.184 4.127 9.14 4.127v-18c.985 0 3.048.397 4.643 2.296 1.317 1.567 1.284 2.975 1.277 2.754l-17.99.576zM17.22 37.07c2.964 0 6.145-.995 8.664-3.515L13.157 20.827a6.135 6.135 0 012.137-1.383 5.447 5.447 0 011.928-.374v18zm8.664-3.515c2.747-2.747 3.515-6.163 3.515-8.869h-18c0-.537.182-2.283 1.758-3.859l12.727 12.728zm3.515-8.869c0-3.474-1.438-7.438-5.296-9.892L14.441 29.98a6.716 6.716 0 01-2.403-2.696c-.543-1.106-.638-2.067-.638-2.598h18zm-5.181-9.818c-3.052-2.008-6.557-2.214-8.653-2.214v18c.479 0 .603.037.478.013a3.641 3.641 0 01-.546-.161 5.83 5.83 0 01-1.172-.6l9.893-15.038zm.347 6.786v-2.988h-18v2.988h18zm-9 6.012h.674v-18h-.674v18zm.674 0c2.119 0 5.372-.381 8.227-2.65 3.249-2.584 4.274-6.2 4.274-9.133h-18c0-1.078.442-3.303 2.524-4.958a6.086 6.086 0 012.201-1.133c.257-.068.456-.098.58-.112.123-.014.191-.014.194-.014v18zM28.74 15.883c0-2.717-.861-5.734-3.186-8.198L12.462 20.037a6.444 6.444 0 01-1.366-2.216 5.73 5.73 0 01-.355-1.938h18zm-3.128-8.136C23.07 5 19.782 4.07 16.973 4.07v18a5.84 5.84 0 01-2.099-.413 6.678 6.678 0 01-2.47-1.681l13.209-12.23zm-8.64-3.677c-2.81 0-6.383.914-9.031 4.044-2.397 2.832-2.85 6.121-2.87 8.307l18 .154c0 .028-.003.372-.158.912a6.17 6.17 0 01-1.232 2.254c-1.68 1.987-3.814 2.33-4.71 2.33v-18zm-2.9 3.428h-3.81v18h3.81v-18zm5.19 9c0-.2.03-.072-.089.254-.13.358-.37.767-.719 1.118L5.675 5.194c-3.242 3.269-4.411 7.412-4.411 11.304h18zm-.808 1.373a3.24 3.24 0 01-1.173.764c-.3.107-.377.066-.09.066v-18C13.3.701 9.02 1.823 5.676 5.194L18.455 17.87zm-1.263.83c.25 0 .233.032.04-.029a2.578 2.578 0 01-.831-.465L27.828 4.3C24.601 1.65 20.783.701 17.192.701v18zm-.791-.494a4.043 4.043 0 01-1.102-1.47c-.268-.607-.295-1.067-.295-1.206h18c0-4.162-1.581-8.277-5.176-11.23L16.401 18.206zm-1.397-2.676c0-.468.124-1.354.715-2.299.582-.93 1.281-1.38 1.584-1.534l8.157 16.046c2.052-1.043 4.061-2.636 5.517-4.962 1.466-2.342 2.027-4.878 2.027-7.25h-18zm2.959 12.515c-.243-.1-.994-.494-1.622-1.442-.622-.937-.678-1.746-.678-1.932h18c0-2.588-.603-5.424-2.318-8.012-1.722-2.598-4.114-4.267-6.544-5.264l-6.838 16.65zm-2.3-3.374c0-.042.01-.33.18-.74.176-.422.424-.742.627-.933L28.813 36.1c3.29-3.1 4.85-7.163 4.85-11.43h-18zm.809-1.675c.129-.121.276-.233.434-.328.157-.095.298-.157.407-.195.217-.076.235-.035-.062-.035v18c4 0 8.192-1.165 11.56-4.337L16.47 22.997zm.779-.558c-.45 0-.487-.06-.256.018.273.091.762.324 1.247.805L5.566 36.042c3.462 3.434 7.903 4.398 11.685 4.398v-18zm1.017.85c.396.395.595.786.674.996.066.178.01.122-.01-.298l-17.98.842c.174 3.734 1.315 7.914 4.588 11.187l12.728-12.728z" fill="#fff"/></svg>